<svg width="92" height="68" viewBox="0 0 92 68" fill="none" xmlns="http://www.w3.org/2000/svg">
<mask id="mask0" mask-type="alpha" maskUnits="userSpaceOnUse" x="0" y="0" width="92" height="68">
<path fill-rule="evenodd" clip-rule="evenodd" d="M92 3C92 2.20435 91.6839 1.44129 91.1213 0.87868C90.5587 0.31607 89.7956 0 89 0L3 0C2.20435 0 1.44129 0.31607 0.87868 0.87868C0.31607 1.44129 0 2.20435 0 3L0 60.26C0 61.0556 0.31607 61.8187 0.87868 62.3813C1.44129 62.9439 2.20435 63.26 3 63.26H39.67C40.1604 63.2602 40.6433 63.3807 41.0763 63.6108C41.5093 63.8409 41.8794 64.1737 42.154 64.58L43.514 66.591C44.704 68.351 47.295 68.351 48.485 66.591L49.845 64.579C50.1199 64.1726 50.4903 63.8399 50.9237 63.6099C51.3572 63.38 51.8404 63.2598 52.331 63.26H89C89.7956 63.26 90.5587 62.9439 91.1213 62.3813C91.6839 61.8187 92 61.0556 92 60.26V3Z" fill="white"/>
</mask>
<g mask="url(#mask0)">
<path fill-rule="evenodd" clip-rule="evenodd" d="M92 3C92 2.20435 91.6839 1.44129 91.1213 0.87868C90.5587 0.31607 89.7956 0 89 0L3 0C2.20435 0 1.44129 0.31607 0.87868 0.87868C0.31607 1.44129 0 2.20435 0 3L0 60.26C0 61.0556 0.31607 61.8187 0.87868 62.3813C1.44129 62.9439 2.20435 63.26 3 63.26H39.67C40.1604 63.2602 40.6433 63.3807 41.0763 63.6108C41.5093 63.8409 41.8794 64.1737 42.154 64.58L43.514 66.591C44.704 68.351 47.295 68.351 48.485 66.591L49.845 64.579C50.1199 64.1726 50.4903 63.8399 50.9237 63.6099C51.3572 63.38 51.8404 63.2598 52.331 63.26H89C89.7956 63.26 90.5587 62.9439 91.1213 62.3813C91.6839 61.8187 92 61.0556 92 60.26V3Z" fill="white"/>
<path d="M49.846 64.58L49.017 64.02L49.845 64.58H49.846ZM43.515 66.591L44.343 66.031L43.515 66.591ZM42.155 64.579L41.325 65.139L42.155 64.579ZM3 1H89V-1H3V1ZM1 60.26V3H-1V60.26H1ZM39.67 62.26H3V64.26H39.67V62.26V62.26ZM44.343 66.031L42.983 64.019L41.326 65.139L42.686 67.151L44.343 66.031ZM49.017 64.019L47.657 66.031L49.313 67.151L50.673 65.14L49.017 64.02V64.019ZM89 62.26H52.33V64.26H89V62.26V62.26ZM91 3V60.26H93V3H91ZM89 64.26C90.0609 64.26 91.0783 63.8386 91.8284 63.0884C92.5786 62.3383 93 61.3209 93 60.26H91C91 60.7904 90.7893 61.2991 90.4142 61.6742C90.0391 62.0493 89.5304 62.26 89 62.26V64.26ZM50.674 65.14C50.8572 64.869 51.104 64.6471 51.3929 64.4936C51.6818 64.3402 52.0039 64.26 52.331 64.26V62.26C51.6768 62.26 51.0326 62.4204 50.4548 62.7273C49.877 63.0341 49.3833 63.478 49.017 64.02L50.674 65.14V65.14ZM42.687 67.151C44.273 69.497 47.727 69.497 49.313 67.151L47.657 66.031C47.4738 66.302 47.227 66.5239 46.9381 66.6774C46.6492 66.8308 46.3271 66.911 46 66.911C45.6729 66.911 45.3508 66.8308 45.0619 66.6774C44.773 66.5239 44.5262 66.302 44.343 66.031L42.686 67.151H42.687ZM39.669 64.26C39.9961 64.26 40.3182 64.3402 40.6071 64.4936C40.896 64.6471 41.1428 64.869 41.326 65.14L42.983 64.02C42.6167 63.478 42.123 63.0341 41.5452 62.7273C40.9674 62.4204 40.3232 62.26 39.669 62.26V64.26V64.26ZM-1 60.26C-1 61.3209 -0.578573 62.3383 0.171573 63.0884C0.921718 63.8386 1.93913 64.26 3 64.26V62.26C2.46957 62.26 1.96086 62.0493 1.58579 61.6742C1.21071 61.2991 1 60.7904 1 60.26H-1V60.26ZM89 1C89.5304 1 90.0391 1.21071 90.4142 1.58579C90.7893 1.96086 91 2.46957 91 3H93C93 1.93913 92.5786 0.921718 91.8284 0.171573C91.0783 -0.578573 90.0609 -1 89 -1V1ZM3 -1C1.93913 -1 0.921718 -0.578573 0.171573 0.171573C-0.578573 0.921718 -1 1.93913 -1 3H1C1 2.46957 1.21071 1.96086 1.58579 1.58579C1.96086 1.21071 2.46957 1 3 1V-1Z" fill="#D8E0F7"/>
<path d="M64.0714 33.1107C65.8286 31.3536 67 28.8643 67 26.375C67 21.3964 63.0464 17.2964 58.2143 16.8571C57.9214 13.4893 54.9929 11 51.625 11C49.575 11 47.6714 12.025 46.5 13.4893C45.3286 12.025 43.425 11 41.375 11C38.0071 11 35.225 13.6357 34.7857 16.8571C29.8071 17.15 26 21.3964 26 26.375C26 26.8143 26 27.2536 26.1464 27.6929V28.1321C26.1464 28.5714 26.2929 28.8643 26.4393 29.1571C26.4393 29.45 26.5857 29.5964 26.7321 29.8893C26.7321 30.0357 26.8786 30.1821 26.8786 30.1821C27.3179 31.3536 28.05 32.3786 28.9286 33.1107C28.05 34.575 27.6107 36.3321 27.6107 38.0893C27.6107 42.6286 30.8321 46.5821 35.225 47.4607C36.1036 50.0964 38.5929 52 41.5214 52C43.5714 52 45.475 50.975 46.6464 49.5107C47.8179 50.975 49.7214 52 51.7714 52C54.7 52 57.1893 50.0964 58.0679 47.4607C62.0214 46.7286 65.0964 43.3607 65.5357 39.4071V38.0893C65.5357 36.3321 65.0964 34.575 64.0714 33.1107ZM54.8464 31.0607L43.1321 42.775C42.8393 43.0679 42.5464 43.2143 42.1071 43.2143C41.8143 43.2143 41.5214 43.2143 41.375 43.0679C40.7893 42.775 40.4964 42.0429 40.7893 41.3107L43.1321 34.4286H39.1786C38.5929 34.4286 38.0071 33.9893 37.8607 33.55C37.5679 32.9643 37.7143 32.3786 38.1536 31.9393L50.6 20.225C51.0393 19.7857 51.9179 19.6393 52.5036 20.0786C53.0893 20.5179 53.2357 21.25 53.0893 21.8357L50.1607 28.5714H53.8214C54.4071 28.5714 54.9929 28.8643 55.1393 29.45C55.4321 30.0357 55.2857 30.6214 54.8464 31.0607Z" fill="#5F82FF"/>
</g>
</svg>
