<svg width="37" height="38" viewBox="0 0 37 38" fill="none" xmlns="http://www.w3.org/2000/svg">
<path fill-rule="evenodd" clip-rule="evenodd" d="M19.1277 4C10.7863 4 4 10.8142 4 19.25C4 20.3546 3.10457 21.25 2 21.25C0.89543 21.25 0 20.3546 0 19.25C0 8.63196 8.55035 0 19.1277 0C21.0728 0 22.9535 0.292847 24.7268 0.83843C25.7825 1.16325 26.3751 2.2824 26.0503 3.33813C25.7254 4.39386 24.6063 4.98639 23.5506 4.66157C22.1539 4.23186 20.6694 4 19.1277 4Z" fill="#5F82FF"/>
<path fill-rule="evenodd" clip-rule="evenodd" d="M15.4415 22.9623C17.4772 25.0126 20.7777 25.0126 22.8134 22.9623C24.8491 20.912 33.2763 6.50002 32.5316 5.75002C31.7869 5.00002 17.4772 13.4874 15.4415 15.5377C13.4058 17.5879 13.4058 20.912 15.4415 22.9623ZM19.1274 20.75C19.95 20.75 20.6168 20.0785 20.6168 19.25C20.6168 18.4216 19.95 17.75 19.1274 17.75C18.3049 17.75 17.6381 18.4216 17.6381 19.25C17.6381 20.0785 18.3049 20.75 19.1274 20.75Z" fill="#5F82FF"/>
<path d="M5.72347 28.25C5.72347 29.0784 5.05666 29.75 4.23411 29.75C3.41156 29.75 2.74475 29.0784 2.74475 28.25C2.74475 27.4216 3.41156 26.75 4.23411 26.75C5.05666 26.75 5.72347 27.4216 5.72347 28.25Z" fill="#5F82FF"/>
<path d="M11.6808 34.25C11.6808 35.0784 11.014 35.75 10.1914 35.75C9.36887 35.75 8.70206 35.0784 8.70206 34.25C8.70206 33.4216 9.36887 32.75 10.1914 32.75C11.014 32.75 11.6808 33.4216 11.6808 34.25Z" fill="#5F82FF"/>
<path d="M20.6169 36.5C20.6169 37.3284 19.9501 38 19.1276 38C18.305 38 17.6382 37.3284 17.6382 36.5C17.6382 35.6716 18.305 35 19.1276 35C19.9501 35 20.6169 35.6716 20.6169 36.5Z" fill="#5F82FF"/>
<path d="M29.5531 34.25C29.5531 35.0784 28.8863 35.75 28.0637 35.75C27.2412 35.75 26.5744 35.0784 26.5744 34.25C26.5744 33.4216 27.2412 32.75 28.0637 32.75C28.8863 32.75 29.5531 33.4216 29.5531 34.25Z" fill="#5F82FF"/>
<path d="M34.766 28.25C34.766 29.0784 34.0992 29.75 33.2766 29.75C32.4541 29.75 31.7873 29.0784 31.7873 28.25C31.7873 27.4216 32.4541 26.75 33.2766 26.75C34.0992 26.75 34.766 27.4216 34.766 28.25Z" fill="#5F82FF"/>
<path d="M36.9999 19.25C36.9999 20.0784 36.3331 20.75 35.5105 20.75C34.688 20.75 34.0212 20.0784 34.0212 19.25C34.0212 18.4216 34.688 17.75 35.5105 17.75C36.3331 17.75 36.9999 18.4216 36.9999 19.25Z" fill="#5F82FF"/>
</svg>
