<svg width="92" height="68" viewBox="0 0 92 68" fill="none" xmlns="http://www.w3.org/2000/svg">
<mask id="mask0" mask-type="alpha" maskUnits="userSpaceOnUse" x="0" y="0" width="92" height="68">
<path fill-rule="evenodd" clip-rule="evenodd" d="M92 3C92 2.20435 91.6839 1.44129 91.1213 0.87868C90.5587 0.31607 89.7956 0 89 0L3 0C2.20435 0 1.44129 0.31607 0.87868 0.87868C0.31607 1.44129 0 2.20435 0 3L0 60.26C0 61.0556 0.31607 61.8187 0.87868 62.3813C1.44129 62.9439 2.20435 63.26 3 63.26H39.67C40.1604 63.2602 40.6432 63.3807 41.0763 63.6108C41.5093 63.8409 41.8794 64.1737 42.154 64.58L43.514 66.591C44.704 68.351 47.295 68.351 48.485 66.591L49.845 64.579C50.1199 64.1726 50.4903 63.8399 50.9237 63.6099C51.3572 63.38 51.8404 63.2598 52.331 63.26H89C89.7956 63.26 90.5587 62.9439 91.1213 62.3813C91.6839 61.8187 92 61.0556 92 60.26V3Z" fill="white"/>
</mask>
<g mask="url(#mask0)">
<path fill-rule="evenodd" clip-rule="evenodd" d="M92 3C92 2.20435 91.6839 1.44129 91.1213 0.87868C90.5587 0.31607 89.7956 0 89 0L3 0C2.20435 0 1.44129 0.31607 0.87868 0.87868C0.31607 1.44129 0 2.20435 0 3L0 60.26C0 61.0556 0.31607 61.8187 0.87868 62.3813C1.44129 62.9439 2.20435 63.26 3 63.26H39.67C40.1604 63.2602 40.6432 63.3807 41.0763 63.6108C41.5093 63.8409 41.8794 64.1737 42.154 64.58L43.514 66.591C44.704 68.351 47.295 68.351 48.485 66.591L49.845 64.579C50.1199 64.1726 50.4903 63.8399 50.9237 63.6099C51.3572 63.38 51.8404 63.2598 52.331 63.26H89C89.7956 63.26 90.5587 62.9439 91.1213 62.3813C91.6839 61.8187 92 61.0556 92 60.26V3Z" fill="white"/>
<path d="M49.846 64.58L49.017 64.02L49.845 64.58H49.846ZM43.515 66.591L44.343 66.031L43.515 66.591ZM42.155 64.579L41.325 65.139L42.155 64.579ZM3 1H89V-1H3V1ZM1 60.26V3H-1V60.26H1ZM39.67 62.26H3V64.26H39.67V62.26ZM44.343 66.031L42.983 64.019L41.326 65.139L42.686 67.151L44.343 66.031ZM49.017 64.019L47.657 66.031L49.313 67.151L50.673 65.14L49.017 64.02V64.019ZM89 62.26H52.33V64.26H89V62.26ZM91 3V60.26H93V3H91ZM89 64.26C90.0609 64.26 91.0783 63.8386 91.8284 63.0884C92.5786 62.3383 93 61.3209 93 60.26H91C91 60.7904 90.7893 61.2991 90.4142 61.6742C90.0391 62.0493 89.5304 62.26 89 62.26V64.26ZM50.674 65.14C50.8572 64.869 51.104 64.6471 51.3929 64.4936C51.6818 64.3402 52.0039 64.26 52.331 64.26V62.26C51.6768 62.26 51.0326 62.4204 50.4548 62.7273C49.877 63.0341 49.3834 63.478 49.017 64.02L50.674 65.14ZM42.687 67.151C44.273 69.497 47.727 69.497 49.313 67.151L47.657 66.031C47.4738 66.302 47.227 66.5239 46.9381 66.6774C46.6492 66.8308 46.3271 66.911 46 66.911C45.6729 66.911 45.3508 66.8308 45.0619 66.6774C44.773 66.5239 44.5262 66.302 44.343 66.031L42.686 67.151H42.687ZM39.669 64.26C39.9961 64.26 40.3182 64.3402 40.6071 64.4936C40.896 64.6471 41.1428 64.869 41.326 65.14L42.983 64.02C42.6166 63.478 42.123 63.0341 41.5452 62.7273C40.9674 62.4204 40.3232 62.26 39.669 62.26V64.26ZM-1 60.26C-1 61.3209 -0.578573 62.3383 0.171573 63.0884C0.921718 63.8386 1.93913 64.26 3 64.26V62.26C2.46957 62.26 1.96086 62.0493 1.58579 61.6742C1.21071 61.2991 1 60.7904 1 60.26H-1ZM89 1C89.5304 1 90.0391 1.21071 90.4142 1.58579C90.7893 1.96086 91 2.46957 91 3H93C93 1.93913 92.5786 0.921718 91.8284 0.171573C91.0783 -0.578573 90.0609 -1 89 -1V1ZM3 -1C1.93913 -1 0.921718 -0.578573 0.171573 0.171573C-0.578573 0.921718 -1 1.93913 -1 3H1C1 2.46957 1.21071 1.96086 1.58579 1.58579C1.96086 1.21071 2.46957 1 3 1V-1Z" fill="#D8E0F7"/>
<path d="M27 31.795C27 30.9532 27.6961 30.2708 28.5547 30.2708H33.4182C34.2769 30.2708 34.973 30.9532 34.973 31.795V46.6618C34.973 47.5036 34.2769 48.1859 33.4182 48.1859H28.5547C27.6961 48.1859 27 47.5036 27 46.6618V31.795ZM49.7093 10.0127C52.0518 9.82481 54.1204 11.7546 54.3854 13.9857C54.8633 16.3837 54.0686 18.7969 52.8474 20.8591C52.197 22.2763 51.2202 23.7847 51.5724 25.399C52.7983 25.7313 54.3257 25.358 55.6652 25.4829C57.8555 25.5329 60.0991 25.3897 62.2415 25.901C63.6807 26.5631 64.624 28.0807 65 29.5536C64.9083 30.9051 62.787 32.0138 64.2139 33.388C65.4546 34.5831 64.7806 36.04 63.6249 36.9927C62.5599 38.3977 64.9445 39.8862 63.8467 41.3271C63.0499 42.4161 61.4719 43.2256 61.8783 44.8018C62.0642 46.3856 60.4809 47.4088 59.3332 48.2173C57.3121 49.2064 54.9453 48.9489 52.7536 49C49.0846 48.8865 45.3841 48.8411 41.7939 48.0114C40.0712 47.6915 38.3404 47.4078 36.6231 47.0641L36.5724 31.0838C38.0219 31.2857 39.19 30.2686 39.9568 29.1735C41.6538 26.932 42.5744 24.2675 43.7903 21.7773C44.9263 20.0997 47.1406 19.3098 47.8039 17.2817C48.7478 15.1337 48.8482 12.7608 49.1011 10.4688C48.9947 10.1726 49.9259 10.0055 49.7092 10.0126L49.7093 10.0127Z" fill="#5F82FF"/>
</g>
</svg>
